# xmcd
#
# Track frame offsets: 
#        150
#        10000
#        20337
#        36394
#        56555
#        75969
#        96894
#        101281
#        118715
#        136603
#        155552
#        175704
#        193021
#        214452
#        227872
#        249337
#        270416
#
# Disc length: 3856 seconds
#
# Revision: 2
# Processed by: cddbd v1.5.2PL0 Copyright (c) Steve Scherf et al.
# Submitted via: ExactAudioCopyFreeDBPlugin 1.0
#
DISCID=d30f0e11
DTITLE=Damion - Kehrseite der Medaille
DYEAR=2004
DGENRE=Rap
TTITLE0=Intro
TTITLE1=Mastermind
TTITLE2=D.A.M.
TTITLE3=Bis Dato
TTITLE4=Kritiker
TTITLE5=Dirty Dancing
TTITLE6=Sommer Skit
TTITLE7=Siedepunkt
TTITLE8=Mit Gefühl
TTITLE9=Kehrseite der Medaille
TTITLE10=Du suchst ein Battle feat. Micro and Chefkoch
TTITLE11=Isolation
TTITLE12=Generationswechsel feat. Ben Salomo, Asek and Ninjah
TTITLE13=Criminal Minded
TTITLE14=H.O.T.
TTITLE15=Fluchtversuch
TTITLE16=Outro
EXTD=
EXTT0=
EXTT1=
EXTT2=
EXTT3=
EXTT4=
EXTT5=
EXTT6=
EXTT7=
EXTT8=
EXTT9=
EXTT10=
EXTT11=
EXTT12=
EXTT13=
EXTT14=
EXTT15=
EXTT16=
PLAYORDER=
